<?xml version="1.0" encoding="UTF-8"?>
<!DOCTYPE svg PUBLIC "-//W3C//DTD SVG 1.1//EN" "http://www.w3.org/Graphics/SVG/1.1/DTD/svg11.dtd">
<svg xmlns="http://www.w3.org/2000/svg" version="1.1" width="500px" height="500px" style="shape-rendering:geometricPrecision; text-rendering:geometricPrecision; image-rendering:optimizeQuality; fill-rule:evenodd; clip-rule:evenodd" xmlns:xlink="http://www.w3.org/1999/xlink">
<g><path style="opacity:0.999" fill="#4a8dd2" d="M 221.5,79.5 C 238.307,81.1935 255.307,82.1935 272.5,82.5C 284.673,81.543 296.006,84.043 306.5,90C 316.264,98.0176 319.931,108.184 317.5,120.5C 315.678,127.251 314.678,134.251 314.5,141.5C 314.795,143.735 314.461,145.735 313.5,147.5C 312.833,149.5 312.167,151.5 311.5,153.5C 309.539,145.732 308.205,137.732 307.5,129.5C 307.844,123.902 307.178,118.568 305.5,113.5C 305.715,111.821 305.048,110.821 303.5,110.5C 301.603,107.441 298.936,105.274 295.5,104C 287.164,103.69 278.83,103.857 270.5,104.5C 262.284,104.323 254.284,104.99 246.5,106.5C 234.903,107.489 223.237,108.322 211.5,109C 209.416,109.697 207.749,110.864 206.5,112.5C 205.639,133 205.639,153.667 206.5,174.5C 202.8,194.027 191.133,205.527 171.5,209C 151.487,209.499 131.487,209.499 111.5,209C 109.677,209.997 108.01,211.164 106.5,212.5C 104.225,239.644 102.558,266.977 101.5,294.5C 101.5,295.5 101.5,296.5 101.5,297.5C 101.054,300.01 101.72,302.01 103.5,303.5C 104.5,303.833 105.167,304.5 105.5,305.5C 106.035,307.446 107.368,308.446 109.5,308.5C 109.833,308.5 110.167,308.5 110.5,308.5C 110.918,309.222 111.584,309.722 112.5,310C 115.482,310.498 118.482,310.665 121.5,310.5C 124.939,310.253 128.272,310.586 131.5,311.5C 136.269,312.889 141.269,313.556 146.5,313.5C 148.735,313.205 150.735,313.539 152.5,314.5C 154.292,315.309 156.292,315.809 158.5,316C 156.498,317.019 154.498,317.852 152.5,318.5C 148.733,319.795 144.733,320.461 140.5,320.5C 135.25,320.302 130.25,320.969 125.5,322.5C 116.782,325.119 108.115,324.953 99.5,322C 98.0577,321.623 97.0577,320.79 96.5,319.5C 96.0269,318.094 95.0269,317.427 93.5,317.5C 93.0269,316.094 92.0269,315.427 90.5,315.5C 89.5,315.167 88.8333,314.5 88.5,313.5C 88.4456,311.368 87.4456,310.035 85.5,309.5C 81.8155,303.766 80.1489,297.432 80.5,290.5C 80.4285,282.635 79.7619,274.969 78.5,267.5C 76.8982,255.942 76.2316,244.276 76.5,232.5C 76.5,223.5 76.5,214.5 76.5,205.5C 77.9238,203.485 78.5905,201.152 78.5,198.5C 79.7589,194.975 81.7589,191.975 84.5,189.5C 86.5,188.167 88.1667,186.5 89.5,184.5C 90.2623,182.738 91.5956,181.738 93.5,181.5C 95.0269,181.573 96.0269,180.906 96.5,179.5C 96.8417,178.662 97.5084,178.328 98.5,178.5C 101.152,178.59 103.485,177.924 105.5,176.5C 107.969,175.683 110.635,175.183 113.5,175C 132.188,174.818 150.855,174.151 169.5,173C 170.636,171.855 171.636,170.688 172.5,169.5C 173.497,151.341 173.83,133.008 173.5,114.5C 173.833,103.188 178.5,94.1885 187.5,87.5C 189.027,87.573 190.027,86.9063 190.5,85.5C 191.659,83.7497 193.326,82.7497 195.5,82.5C 197.898,82.7406 199.898,82.0739 201.5,80.5C 205.223,79.0033 209.223,78.3367 213.5,78.5C 216.355,78.5025 219.022,78.8359 221.5,79.5 Z"/></g>
<g><path style="opacity:0.38" fill="#c1d5ec" d="M 221.5,79.5 C 238.693,79.8065 255.693,80.8065 272.5,82.5C 255.307,82.1935 238.307,81.1935 221.5,79.5 Z"/></g>
<g><path style="opacity:0.941" fill="#91b6e1" d="M 201.5,80.5 C 199.898,82.0739 197.898,82.7406 195.5,82.5C 197.102,80.9261 199.102,80.2594 201.5,80.5 Z"/></g>
<g><path style="opacity:0.78" fill="#9fc0e5" d="M 190.5,85.5 C 190.027,86.9063 189.027,87.573 187.5,87.5C 187.973,86.0937 188.973,85.427 190.5,85.5 Z"/></g>
<g><path style="opacity:0.075" fill="#cbdcef" d="M 270.5,104.5 C 262.693,105.717 254.693,106.384 246.5,106.5C 254.284,104.99 262.284,104.323 270.5,104.5 Z"/></g>
<g><path style="opacity:0.906" fill="#a6c2e6" d="M 303.5,110.5 C 305.048,110.821 305.715,111.821 305.5,113.5C 304.599,112.71 303.932,111.71 303.5,110.5 Z"/></g>
<g><path style="opacity:0.537" fill="#b7cfea" d="M 305.5,113.5 C 307.178,118.568 307.844,123.902 307.5,129.5C 306.449,124.354 305.782,119.021 305.5,113.5 Z"/></g>
<g><path style="opacity:0.322" fill="#c7d9ee" d="M 317.5,120.5 C 317.135,127.724 316.135,134.724 314.5,141.5C 314.678,134.251 315.678,127.251 317.5,120.5 Z"/></g>
<g><path style="opacity:0.999" fill="#64c9b4" d="M 246.5,309.5 C 242.081,308.028 237.414,307.362 232.5,307.5C 230.585,307.784 228.919,307.451 227.5,306.5C 226.602,305.842 225.602,305.176 224.5,304.5C 226.969,303.832 229.302,303.165 231.5,302.5C 238.021,301.062 244.688,299.729 251.5,298.5C 256.703,297.991 261.37,296.324 265.5,293.5C 280.366,287.479 293.533,278.812 305,267.5C 308.465,261.565 311.632,255.565 314.5,249.5C 315.924,247.485 316.59,245.152 316.5,242.5C 318.113,232.54 319.447,222.54 320.5,212.5C 321.482,209.038 321.815,205.371 321.5,201.5C 320.209,201.263 319.209,201.596 318.5,202.5C 301.37,212.705 282.703,218.205 262.5,219C 249.838,219.5 237.171,219.667 224.5,219.5C 220.542,219.251 216.876,219.918 213.5,221.5C 200.831,224.426 190.997,231.426 184,242.5C 181.782,247.59 179.616,252.59 177.5,257.5C 175.825,263.689 174.325,270.022 173,276.5C 172.79,274.942 172.29,273.609 171.5,272.5C 169.332,266.485 168.332,260.151 168.5,253.5C 168.354,248.576 169.021,243.909 170.5,239.5C 171.924,237.485 172.59,235.152 172.5,232.5C 172.796,230.597 173.463,228.93 174.5,227.5C 175.906,227.027 176.573,226.027 176.5,224.5C 183.073,211.93 193.073,203.263 206.5,198.5C 212.166,197.61 217.5,195.943 222.5,193.5C 223.568,192.566 224.901,192.232 226.5,192.5C 238.088,191.638 249.422,189.971 260.5,187.5C 285.844,182.316 308.177,171.149 327.5,154C 336.425,149.762 344.259,151.262 351,158.5C 352.562,160.957 353.562,163.624 354,166.5C 358.206,199.251 354.206,230.917 342,261.5C 330.294,285.188 311.461,300.021 285.5,306C 272.614,309.369 259.614,310.535 246.5,309.5 Z"/></g>
<g><path style="opacity:0.42" fill="#c3d7ed" d="M 313.5,147.5 C 313.789,150.649 313.289,153.649 312,156.5C 311.517,155.552 311.351,154.552 311.5,153.5C 312.167,151.5 312.833,149.5 313.5,147.5 Z"/></g>
<g><path style="opacity:0.725" fill="#a4c3e6" d="M 173.5,114.5 C 173.83,133.008 173.497,151.341 172.5,169.5C 171.948,166.884 171.614,164.217 171.5,161.5C 172.07,145.671 172.737,130.004 173.5,114.5 Z"/></g>
<g><path style="opacity:0.137" fill="#d5e2f1" d="M 206.5,112.5 C 207.059,133.338 207.059,154.004 206.5,174.5C 205.639,153.667 205.639,133 206.5,112.5 Z"/></g>
<g><path style="opacity:0.914" fill="#9abbe3" d="M 105.5,176.5 C 103.485,177.924 101.152,178.59 98.5,178.5C 100.515,177.076 102.848,176.41 105.5,176.5 Z"/></g>
<g><path style="opacity:0.647" fill="#b7cfea" d="M 96.5,179.5 C 96.0269,180.906 95.0269,181.573 93.5,181.5C 93.9731,180.094 94.9731,179.427 96.5,179.5 Z"/></g>
<g><path style="opacity:0.647" fill="#adc9e8" d="M 89.5,184.5 C 88.1667,186.5 86.5,188.167 84.5,189.5C 85.1667,186.833 86.8333,185.167 89.5,184.5 Z"/></g>
<g><path style="opacity:0.999" fill="#498dd2" d="M 394.5,188.5 C 401.53,189.515 407.197,192.849 411.5,198.5C 411.427,200.027 412.094,201.027 413.5,201.5C 416.359,204.902 417.859,208.902 418,213.5C 420.218,234.454 421.718,255.454 422.5,276.5C 422.729,286.532 422.396,296.532 421.5,306.5C 417.227,319.105 408.56,326.771 395.5,329.5C 374.853,330.708 354.186,331.541 333.5,332C 332.944,332.383 332.611,332.883 332.5,333.5C 331.833,334.833 330.833,335.833 329.5,336.5C 328.503,357.66 328.169,378.993 328.5,400.5C 324.057,418.941 312.39,429.274 293.5,431.5C 265.499,431.227 237.499,430.894 209.5,430.5C 202.651,430.11 196.651,427.777 191.5,423.5C 191.027,422.094 190.027,421.427 188.5,421.5C 181.66,416.157 177.66,409.157 176.5,400.5C 176.5,382.167 176.5,363.833 176.5,345.5C 176.857,321.878 182.357,299.544 193,278.5C 194.517,276.76 196.017,275.094 197.5,273.5C 198.906,273.027 199.573,272.027 199.5,270.5C 201.694,267.395 204.36,264.728 207.5,262.5C 210.089,261.581 212.089,259.914 213.5,257.5C 215.027,257.573 216.027,256.906 216.5,255.5C 223.089,250.27 230.422,246.27 238.5,243.5C 241.716,243.655 244.383,242.655 246.5,240.5C 246.833,240.5 247.167,240.5 247.5,240.5C 250.152,240.59 252.485,239.924 254.5,238.5C 256.993,238.131 257.66,238.797 256.5,240.5C 242.534,248.09 230.034,257.757 219,269.5C 211.421,279.421 206.255,290.421 203.5,302.5C 201.823,309.596 201.157,316.929 201.5,324.5C 202.004,347.899 203.504,371.232 206,394.5C 206.833,396 208,397.167 209.5,398C 214.823,398.499 220.156,398.666 225.5,398.5C 247.689,398.807 269.689,398.14 291.5,396.5C 293.734,395.181 295.068,393.181 295.5,390.5C 294.282,370.859 294.449,351.193 296,331.5C 297.541,323.407 301.374,316.74 307.5,311.5C 309.749,310.92 311.415,309.587 312.5,307.5C 314.027,307.573 315.027,306.906 315.5,305.5C 318.66,303 322.327,301.667 326.5,301.5C 348.671,302.032 370.671,302.032 392.5,301.5C 392.842,300.662 393.508,300.328 394.5,300.5C 396.5,300.5 397.5,299.5 397.5,297.5C 397.557,296.391 397.89,295.391 398.5,294.5C 400.019,285.042 400.685,275.375 400.5,265.5C 401.425,246.153 402.258,226.82 403,207.5C 401.401,202.406 398.234,198.739 393.5,196.5C 391.562,194.837 389.228,194.171 386.5,194.5C 380.288,194.477 374.288,193.81 368.5,192.5C 369.167,191.833 369.833,191.167 370.5,190.5C 378.515,189.998 386.515,189.331 394.5,188.5 Z"/></g>
<g><path style="opacity:0.827" fill="#b4cce9" d="M 394.5,188.5 C 386.515,189.331 378.515,189.998 370.5,190.5C 376.976,189.187 383.643,188.187 390.5,187.5C 392.045,187.511 393.378,187.844 394.5,188.5 Z"/></g>
<g><path style="opacity:0.733" fill="#b9e4db" d="M 260.5,187.5 C 249.422,189.971 238.088,191.638 226.5,192.5C 237.593,190.105 248.927,188.438 260.5,187.5 Z"/></g>
<g><path style="opacity:0.694" fill="#a9c7e7" d="M 370.5,190.5 C 369.833,191.167 369.167,191.833 368.5,192.5C 367.127,192.657 365.793,192.49 364.5,192C 366.345,190.872 368.345,190.372 370.5,190.5 Z"/></g>
<g><path style="opacity:0.596" fill="#c6d9ed" d="M 386.5,194.5 C 389.228,194.171 391.562,194.837 393.5,196.5C 390.933,196.279 388.599,195.612 386.5,194.5 Z"/></g>
<g><path style="opacity:0.886" fill="#a4ddd1" d="M 222.5,193.5 C 217.5,195.943 212.166,197.61 206.5,198.5C 211.49,196.061 216.823,194.394 222.5,193.5 Z"/></g>
<g><path style="opacity:0.341" fill="#b9d0eb" d="M 411.5,198.5 C 412.906,198.973 413.573,199.973 413.5,201.5C 412.094,201.027 411.427,200.027 411.5,198.5 Z"/></g>
<g><path style="opacity:0.961" fill="#92b6e1" d="M 78.5,198.5 C 78.5905,201.152 77.9238,203.485 76.5,205.5C 76.4095,202.848 77.0762,200.515 78.5,198.5 Z"/></g>
<g><path style="opacity:0.131" fill="#d0ebe6" d="M 318.5,202.5 C 319.209,201.596 320.209,201.263 321.5,201.5C 321.815,205.371 321.482,209.038 320.5,212.5C 321.069,208.671 320.402,205.337 318.5,202.5 Z"/></g>
<g><path style="opacity:0.733" fill="#b4cde9" d="M 76.5,205.5 C 76.5,214.5 76.5,223.5 76.5,232.5C 75.7526,226.653 75.086,220.653 74.5,214.5C 74.9908,211.326 75.6575,208.326 76.5,205.5 Z"/></g>
<g><path style="opacity:0.01" fill="#def0ed" d="M 224.5,219.5 C 221.054,220.687 217.387,221.354 213.5,221.5C 216.876,219.918 220.542,219.251 224.5,219.5 Z"/></g>
<g><path style="opacity:0.247" fill="#cfebe5" d="M 176.5,224.5 C 176.573,226.027 175.906,227.027 174.5,227.5C 174.427,225.973 175.094,224.973 176.5,224.5 Z"/></g>
<g><path style="opacity:0.416" fill="#c9daee" d="M 106.5,212.5 C 105.619,240.033 103.952,267.366 101.5,294.5C 102.558,266.977 104.225,239.644 106.5,212.5 Z"/></g>
<g><path style="opacity:0.882" fill="#b6cdea" d="M 256.5,240.5 C 257.66,238.797 256.993,238.131 254.5,238.5C 256.851,236.797 259.518,236.297 262.5,237C 260.937,238.947 258.937,240.114 256.5,240.5 Z"/></g>
<g><path style="opacity:0.561" fill="#bce5dd" d="M 172.5,232.5 C 172.59,235.152 171.924,237.485 170.5,239.5C 170.41,236.848 171.076,234.515 172.5,232.5 Z"/></g>
<g><path style="opacity:0.808" fill="#9cbde3" d="M 254.5,238.5 C 252.485,239.924 250.152,240.59 247.5,240.5C 249.515,239.076 251.848,238.41 254.5,238.5 Z"/></g>
<g><path style="opacity:0.949" fill="#93b6e1" d="M 246.5,240.5 C 244.383,242.655 241.716,243.655 238.5,243.5C 240.936,242.129 243.603,241.129 246.5,240.5 Z"/></g>
<g><path style="opacity:0.729" fill="#b8e4db" d="M 316.5,242.5 C 316.59,245.152 315.924,247.485 314.5,249.5C 314.41,246.848 315.076,244.515 316.5,242.5 Z"/></g>
<g><path style="opacity:0.776" fill="#9fc0e5" d="M 216.5,255.5 C 216.027,256.906 215.027,257.573 213.5,257.5C 213.973,256.094 214.973,255.427 216.5,255.5 Z"/></g>
<g><path style="opacity:0.141" fill="#cbe9e4" d="M 177.5,257.5 C 176.595,265.233 175.428,272.9 174,280.5C 171.977,278.231 171.144,275.564 171.5,272.5C 172.29,273.609 172.79,274.942 173,276.5C 174.325,270.022 175.825,263.689 177.5,257.5 Z"/></g>
<g><path style="opacity:0.918" fill="#8cb3e0" d="M 213.5,257.5 C 212.089,259.914 210.089,261.581 207.5,262.5C 208.911,260.086 210.911,258.419 213.5,257.5 Z"/></g>
<g><path style="opacity:0.749" fill="#a7c4e6" d="M 199.5,270.5 C 199.573,272.027 198.906,273.027 197.5,273.5C 197.427,271.973 198.094,270.973 199.5,270.5 Z"/></g>
<g><path style="opacity:0.161" fill="#c4d7ed" d="M 78.5,267.5 C 79.7619,274.969 80.4285,282.635 80.5,290.5C 79.0279,283.049 78.3612,275.382 78.5,267.5 Z"/></g>
<g><path style="opacity:0.216" fill="#c6d8ed" d="M 400.5,265.5 C 400.685,275.375 400.019,285.042 398.5,294.5C 398.557,284.641 399.224,274.974 400.5,265.5 Z"/></g>
<g><path style="opacity:0.79" fill="#adc8e8" d="M 422.5,276.5 C 423.296,282.337 423.962,288.337 424.5,294.5C 424.129,298.787 423.129,302.787 421.5,306.5C 422.396,296.532 422.729,286.532 422.5,276.5 Z"/></g>
<g><path style="opacity:0.796" fill="#a7ded2" d="M 265.5,293.5 C 261.37,296.324 256.703,297.991 251.5,298.5C 255.94,296.462 260.607,294.796 265.5,293.5 Z"/></g>
<g><path style="opacity:0.639" fill="#a7c4e6" d="M 397.5,297.5 C 397.5,299.5 396.5,300.5 394.5,300.5C 395.167,299.167 396.167,298.167 397.5,297.5 Z"/></g>
<g><path style="opacity:0.859" fill="#a2c0e5" d="M 101.5,297.5 C 102.458,299.302 103.125,301.302 103.5,303.5C 101.72,302.01 101.054,300.01 101.5,297.5 Z"/></g>
<g><path style="opacity:0.439" fill="#b4cdea" d="M 326.5,301.5 C 348.336,300.47 370.336,300.47 392.5,301.5C 370.671,302.032 348.671,302.032 326.5,301.5 Z"/></g>
<g><path style="opacity:0.667" fill="#b9e4db" d="M 231.5,302.5 C 229.302,303.165 226.969,303.832 224.5,304.5C 225.602,305.176 226.602,305.842 227.5,306.5C 224.654,306.97 222.321,306.137 220.5,304C 224.026,302.663 227.692,302.163 231.5,302.5 Z"/></g>
<g><path style="opacity:0.91" fill="#a4c1e5" d="M 105.5,305.5 C 107.23,306.026 108.564,307.026 109.5,308.5C 107.368,308.446 106.035,307.446 105.5,305.5 Z"/></g>
<g><path style="opacity:0.773" fill="#a5c3e6" d="M 315.5,305.5 C 315.027,306.906 314.027,307.573 312.5,307.5C 312.973,306.094 313.973,305.427 315.5,305.5 Z"/></g>
<g><path style="opacity:0.635" fill="#afe1d6" d="M 232.5,307.5 C 237.414,307.362 242.081,308.028 246.5,309.5C 241.566,309.771 236.9,309.104 232.5,307.5 Z"/></g>
<g><path style="opacity:0.937" fill="#a6c2e6" d="M 85.5,309.5 C 87.4456,310.035 88.4456,311.368 88.5,313.5C 87.0256,312.564 86.0256,311.23 85.5,309.5 Z"/></g>
<g><path style="opacity:0.013" fill="#dee7f3" d="M 110.5,308.5 C 114.337,308.931 118.003,309.598 121.5,310.5C 118.482,310.665 115.482,310.498 112.5,310C 111.584,309.722 110.918,309.222 110.5,308.5 Z"/></g>
<g><path style="opacity:0.898" fill="#91b6e1" d="M 312.5,307.5 C 311.415,309.587 309.749,310.92 307.5,311.5C 308.585,309.413 310.251,308.08 312.5,307.5 Z"/></g>
<g><path style="opacity:0.008" fill="#d7e3f1" d="M 131.5,311.5 C 136.731,311.444 141.731,312.111 146.5,313.5C 141.269,313.556 136.269,312.889 131.5,311.5 Z"/></g>
<g><path style="opacity:0.788" fill="#a5c3e6" d="M 90.5,315.5 C 92.0269,315.427 93.0269,316.094 93.5,317.5C 91.9731,317.573 90.9731,316.906 90.5,315.5 Z"/></g>
<g><path style="opacity:0.659" fill="#b3cce9" d="M 152.5,314.5 C 156.348,314.24 160.015,314.906 163.5,316.5C 163.291,317.086 162.957,317.586 162.5,318C 159.183,318.498 155.85,318.665 152.5,318.5C 154.498,317.852 156.498,317.019 158.5,316C 156.292,315.809 154.292,315.309 152.5,314.5 Z"/></g>
<g><path style="opacity:0.184" fill="#d0dff0" d="M 203.5,302.5 C 203.204,310.014 202.538,317.347 201.5,324.5C 201.157,316.929 201.823,309.596 203.5,302.5 Z"/></g>
<g><path style="opacity:0.565" fill="#a3c2e6" d="M 93.5,317.5 C 95.0269,317.427 96.0269,318.094 96.5,319.5C 94.9731,319.573 93.9731,318.906 93.5,317.5 Z"/></g>
<g><path style="opacity:0.169" fill="#cedeef" d="M 140.5,320.5 C 135.71,321.725 130.71,322.392 125.5,322.5C 130.25,320.969 135.25,320.302 140.5,320.5 Z"/></g>
<g><path style="opacity:0.082" fill="#c9dbee" d="M 395.5,329.5 C 393.369,330.314 391.036,330.814 388.5,331C 369.82,331.776 351.153,332.61 332.5,333.5C 332.611,332.883 332.944,332.383 333.5,332C 354.186,331.541 374.853,330.708 395.5,329.5 Z"/></g>
<g><path style="opacity:0.771" fill="#adc8e8" d="M 176.5,345.5 C 176.5,363.833 176.5,382.167 176.5,400.5C 175.112,395.568 174.445,390.401 174.5,385C 174.986,371.665 175.653,358.499 176.5,345.5 Z"/></g>
<g><path style="opacity:0.906" fill="#9dbde4" d="M 329.5,336.5 C 329.448,351.674 329.781,366.841 330.5,382C 330.711,388.414 330.045,394.581 328.5,400.5C 328.169,378.993 328.503,357.66 329.5,336.5 Z"/></g>
<g><path style="opacity:0.753" fill="#bcd2eb" d="M 291.5,396.5 C 269.689,398.14 247.689,398.807 225.5,398.5C 247.322,397.211 269.322,396.544 291.5,396.5 Z"/></g>
<g><path style="opacity:0.353" fill="#bbd2eb" d="M 188.5,421.5 C 190.027,421.427 191.027,422.094 191.5,423.5C 189.973,423.573 188.973,422.906 188.5,421.5 Z"/></g>
<g><path style="opacity:0.01" fill="#dee7f3" d="M 209.5,430.5 C 237.499,430.894 265.499,431.227 293.5,431.5C 265.49,432.616 237.49,432.282 209.5,430.5 Z"/></g>
</svg>
